static_grf.mot
version=1
nRows=25
nColumns 19
inDegrees=yes
endheader
time	1_ground_force_vx	1_ground_force_vy	1_ground_force_vz	1_ground_force_px	1_ground_force_py	1_ground_force_pz	1_ground_torque_x	1_ground_torque_y	1_ground_torque_z	2_ground_force_vx	2_ground_force_vy	2_ground_force_vz	2_ground_force_px	2_ground_force_py	2_ground_force_pz	2_ground_torque_x	2_ground_torque_y	2_ground_torque_z
            1.415000	           -5.333631	          410.498374	          -48.302651	           -0.269676	            0.006232	           -0.408888	           -0.069077	            5.316461	           -0.625579	            4.156750	          476.787238	           51.630794	           -0.281411	            0.005407	           -0.680622	           -0.037610	           -4.313885	           -0.467146
            1.415500	           -4.875204	          411.759960	          -48.206666	           -0.269679	            0.006231	           -0.408714	           -0.064083	            5.412458	           -0.633662	            3.830006	          476.418777	           51.348051	           -0.281699	            0.005405	           -0.680458	           -0.034364	           -4.274557	           -0.460708
            1.416000	           -5.104059	          411.038460	          -48.117477	           -0.269679	            0.006232	           -0.408936	           -0.067061	            5.400503	           -0.632200	            4.015494	          476.971206	           51.537655	           -0.281748	            0.005407	           -0.680876	           -0.036386	           -4.322010	           -0.467001
            1.416500	           -5.196069	          410.318166	          -48.303765	           -0.269486	            0.006233	           -0.409273	           -0.067682	            5.344658	           -0.629188	            3.735663	          476.602412	           51.395676	           -0.281516	            0.005406	           -0.680594	           -0.033703	           -4.299921	           -0.463693
            1.417000	           -5.195857	          409.777142	          -48.260232	           -0.269622	            0.006235	           -0.409610	           -0.067929	            5.357325	           -0.630942	            4.020914	          475.497183	           51.767039	           -0.281660	            0.005405	           -0.680244	           -0.036400	           -4.304463	           -0.468624
            1.417500	           -5.241310	          410.136878	          -48.075149	           -0.269342	            0.006233	           -0.409272	           -0.067777	            5.303624	           -0.621677	            3.971365	          476.233911	           51.675831	           -0.281588	            0.005405	           -0.680204	           -0.035848	           -4.298731	           -0.466452
            1.418000	           -5.105183	          411.580996	          -48.527866	           -0.269897	            0.006231	           -0.408684	           -0.066866	            5.390723	           -0.635599	            3.876897	          476.418612	           51.441887	           -0.281812	            0.005404	           -0.680143	           -0.034941	           -4.293724	           -0.463620
            1.418500	           -5.058378	          410.678331	          -48.210849	           -0.269484	            0.006233	           -0.409124	           -0.066060	            5.363231	           -0.629607	            3.966610	          477.523794	           51.445789	           -0.281583	            0.005406	           -0.680657	           -0.035589	           -4.284370	           -0.461574
            1.419000	           -4.920981	          411.399420	          -48.208098	           -0.269353	            0.006231	           -0.408714	           -0.064573	            5.398336	           -0.632581	            3.927091	          475.497849	           51.485510	           -0.281555	            0.005405	           -0.680202	           -0.035198	           -4.261796	           -0.461455
            1.419500	           -5.195518	          411.038049	          -48.025538	           -0.269784	            0.006232	           -0.408929	           -0.068225	            5.397552	           -0.630648	            3.920383	          477.339819	           51.351296	           -0.281532	            0.005407	           -0.680754	           -0.034910	           -4.250594	           -0.457271
            1.420000	           -5.333682	          411.399537	          -48.252934	           -0.269512	            0.006233	           -0.409231	           -0.068895	            5.314008	           -0.623278	            3.923124	          476.602587	           51.536380	           -0.281393	            0.005407	           -0.680756	           -0.035474	           -4.309576	           -0.466007
            1.420500	           -4.874923	          409.596969	          -48.261801	           -0.269767	            0.006234	           -0.409394	           -0.064561	            5.424514	           -0.639157	            3.825395	          477.707427	           51.446506	           -0.281614	            0.005406	           -0.680594	           -0.033925	           -4.236422	           -0.456240
            1.421000	           -5.195940	          410.858539	          -48.209735	           -0.269763	            0.006233	           -0.409151	           -0.067616	            5.346571	           -0.627361	            4.016844	          476.602758	           51.583269	           -0.281540	            0.005406	           -0.680443	           -0.036698	           -4.354241	           -0.471265
            1.421500	           -5.196348	          411.219660	          -48.345760	           -0.269581	            0.006232	           -0.409032	           -0.067985	            5.380046	           -0.632515	            4.016221	          476.786564	           51.677782	           -0.281562	            0.005406	           -0.680463	           -0.036566	           -4.340952	           -0.470506
            1.422000	           -4.874829	          411.579074	          -48.069875	           -0.269652	            0.006231	           -0.408767	           -0.064138	            5.415119	           -0.632452	            3.874342	          477.154338	           51.679156	           -0.281506	            0.005407	           -0.680812	           -0.034497	           -4.248508	           -0.460143
            1.422500	           -5.012553	          411.399206	          -48.162019	           -0.269599	            0.006231	           -0.408711	           -0.065507	            5.376389	           -0.629408	            3.925221	          476.049267	           51.769050	           -0.281885	            0.005403	           -0.680025	           -0.035321	           -4.283709	           -0.465842
            1.423000	           -5.149837	          410.677920	          -48.118909	           -0.269404	            0.006234	           -0.409347	           -0.067319	            5.368393	           -0.629012	            3.925200	          476.049434	           51.722122	           -0.281677	            0.005405	           -0.680303	           -0.035748	           -4.335544	           -0.471051
            1.423500	           -5.150424	          411.399769	          -48.299241	           -0.269389	            0.006233	           -0.409094	           -0.066950	            5.347789	           -0.627842	            3.972050	          476.049603	           51.722102	           -0.281644	            0.005405	           -0.680342	           -0.035904	           -4.303084	           -0.467524
            1.424000	           -5.196348	          411.219660	          -48.345760	           -0.269685	            0.006232	           -0.409030	           -0.067466	            5.339008	           -0.627690	            3.826786	          477.338644	           51.585976	           -0.281446	            0.005407	           -0.680713	           -0.034173	           -4.262661	           -0.460666
            1.424500	           -5.195614	          410.317379	          -48.120342	           -0.269769	            0.006235	           -0.409574	           -0.067634	            5.341344	           -0.626411	            4.155338	          477.156189	           51.444396	           -0.281386	            0.005407	           -0.680739	           -0.037224	           -4.274388	           -0.460841
            1.425000	           -5.334170	          411.580558	          -48.435585	           -0.269576	            0.006233	           -0.409183	           -0.069122	            5.333387	           -0.627643	            3.970679	          476.418280	           51.629560	           -0.281614	            0.005406	           -0.680539	           -0.035646	           -4.276946	           -0.463494
            1.425500	           -5.242223	          411.399948	          -48.344873	           -0.269857	            0.006233	           -0.409146	           -0.068044	            5.339983	           -0.627518	            4.202956	          476.971381	           51.678359	           -0.281422	            0.005407	           -0.680683	           -0.038348	           -4.351931	           -0.471518
            1.426000	           -5.333957	          411.039595	          -48.392044	           -0.269525	            0.006233	           -0.409290	           -0.069508	            5.356342	           -0.630607	            3.875630	          476.786391	           51.583985	           -0.281415	            0.005406	           -0.680499	           -0.034936	           -4.297830	           -0.464986
            1.426500	           -5.150049	          411.218883	          -48.162450	           -0.269405	            0.006233	           -0.409194	           -0.067148	            5.361604	           -0.627958	            4.111188	          476.419123	           51.535644	           -0.281606	            0.005406	           -0.680622	           -0.037290	           -4.321306	           -0.467448
            1.427000	           -5.241768	          411.399161	          -48.161450	           -0.269681	            0.006232	           -0.408899	           -0.067975	            5.335011	           -0.624556	            4.064400	          476.418451	           51.676448	           -0.281606	            0.005406	           -0.680463	           -0.036791	           -4.312508	           -0.467772
